<svg width="124" height="32" viewBox="0 0 124 32" fill="none" xmlns="http://www.w3.org/2000/svg">
<path d="M7.82265 32H6.32265V33.5H7.82265V32ZM7.82265 7.7H9.32265V6.2H7.82265V7.7ZM0.722656 7.7H-0.777344V9.2H0.722656V7.7ZM0.722656 0.149999V-1.35H-0.777344V0.149999H0.722656ZM23.6227 0.149999H25.1227V-1.35H23.6227V0.149999ZM23.6227 7.7V9.2H25.1227V7.7H23.6227ZM16.5227 7.7V6.2H15.0227V7.7H16.5227ZM16.5227 32V33.5H18.0227V32H16.5227ZM9.32265 32V7.7H6.32265V32H9.32265ZM7.82265 6.2H0.722656V9.2H7.82265V6.2ZM2.22266 7.7V0.149999H-0.777344V7.7H2.22266ZM0.722656 1.65H23.6227V-1.35H0.722656V1.65ZM22.1227 0.149999V7.7H25.1227V0.149999H22.1227ZM23.6227 6.2H16.5227V9.2H23.6227V6.2ZM15.0227 7.7V32H18.0227V7.7H15.0227ZM16.5227 30.5H7.82265V33.5H16.5227V30.5ZM25.4832 32H23.9832V33.5H25.4832V32ZM25.4832 0.149999V-1.35H23.9832V0.149999H25.4832ZM45.0332 0.149999H46.5332V-1.35H45.0332V0.149999ZM45.0332 7.1V8.6H46.5332V7.1H45.0332ZM34.0332 7.1V5.6H32.5332V7.1H34.0332ZM34.0332 12.65H32.5332V14.15H34.0332V12.65ZM44.3832 12.65H45.8832V11.15H44.3832V12.65ZM44.3832 19.45V20.95H45.8832V19.45H44.3832ZM34.0332 19.45V17.95H32.5332V19.45H34.0332ZM34.0332 24.85H32.5332V26.35H34.0332V24.85ZM45.0332 24.85H46.5332V23.35H45.0332V24.85ZM45.0332 32V33.5H46.5332V32H45.0332ZM26.9832 32V0.149999H23.9832V32H26.9832ZM25.4832 1.65H45.0332V-1.35H25.4832V1.65ZM43.5332 0.149999V7.1H46.5332V0.149999H43.5332ZM45.0332 5.6H34.0332V8.6H45.0332V5.6ZM32.5332 7.1V12.65H35.5332V7.1H32.5332ZM34.0332 14.15H44.3832V11.15H34.0332V14.15ZM42.8832 12.65V19.45H45.8832V12.65H42.8832ZM44.3832 17.95H34.0332V20.95H44.3832V17.95ZM32.5332 19.45V24.85H35.5332V19.45H32.5332ZM34.0332 26.35H45.0332V23.35H34.0332V26.35ZM43.5332 24.85V32H46.5332V24.85H43.5332ZM45.0332 30.5H25.4832V33.5H45.0332V30.5ZM49.1098 32L47.6913 31.5123L47.0079 33.5H49.1098V32ZM60.0598 0.149999V-1.35H58.9893L58.6413 -0.337683L60.0598 0.149999ZM70.9098 0.149999L72.3269 -0.34166L71.9771 -1.35H70.9098V0.149999ZM81.9598 32V33.5H84.0679L83.3769 31.5083L81.9598 32ZM73.2598 32L71.8147 32.4021L72.1202 33.5H73.2598V32ZM71.6598 26.25L73.1049 25.8479L72.7994 24.75H71.6598V26.25ZM59.3598 26.25V24.75H58.2297L57.918 25.8363L59.3598 26.25ZM57.7098 32V33.5H58.8399L59.1516 32.4137L57.7098 32ZM64.4598 9.55L65.8933 9.9916L65.8978 9.97689L65.9021 9.96208L64.4598 9.55ZM61.2098 20.1L59.7762 19.6584L59.1781 21.6H61.2098V20.1ZM69.8598 20.1V21.6H71.8914L71.2933 19.6584L69.8598 20.1ZM66.6098 9.55L68.0433 9.10839L68.0382 9.09196L68.0328 9.07565L66.6098 9.55ZM66.1098 8L64.6496 8.34356L64.662 8.39599L64.678 8.44741L66.1098 8ZM65.7598 6.35L67.2341 6.07356L67.2152 5.97286L67.1828 5.87566L65.7598 6.35ZM65.6098 5.8L64.1302 6.04659L64.1342 6.07045L64.1389 6.09417L65.6098 5.8ZM65.5098 5.25L66.9806 4.95582L64.0389 4.95583L65.5098 5.25ZM65.3598 5.8L63.9367 5.32565L63.9072 5.41425L63.8889 5.50582L65.3598 5.8ZM65.2598 6.35L66.6014 7.02084L66.7023 6.81909L66.7394 6.59659L65.2598 6.35ZM65.1598 6.7L63.8181 6.02918L63.7283 6.20885L63.6889 6.40582L65.1598 6.7ZM64.8098 8.15L63.3675 7.73792L63.3536 7.7864L63.3431 7.83571L64.8098 8.15ZM50.5283 32.4877L61.4783 0.637681L58.6413 -0.337683L47.6913 31.5123L50.5283 32.4877ZM60.0598 1.65H70.9098V-1.35H60.0598V1.65ZM69.4926 0.641658L80.5426 32.4917L83.3769 31.5083L72.3269 -0.34166L69.4926 0.641658ZM81.9598 30.5H73.2598V33.5H81.9598V30.5ZM74.7049 31.5979L73.1049 25.8479L70.2147 26.6521L71.8147 32.4021L74.7049 31.5979ZM71.6598 24.75H59.3598V27.75H71.6598V24.75ZM57.918 25.8363L56.268 31.5863L59.1516 32.4137L60.8016 26.6637L57.918 25.8363ZM57.7098 30.5H49.1098V33.5H57.7098V30.5ZM63.0262 9.10839L59.7762 19.6584L62.6433 20.5416L65.8933 9.9916L63.0262 9.10839ZM61.2098 21.6H69.8598V18.6H61.2098V21.6ZM71.2933 19.6584L68.0433 9.10839L65.1762 9.9916L68.4262 20.5416L71.2933 19.6584ZM68.0328 9.07565C67.8693 8.58512 67.7055 8.07745 67.5415 7.55259L64.678 8.44741C64.8474 8.98921 65.0169 9.51488 65.1867 10.0243L68.0328 9.07565ZM67.5699 7.65644C67.4414 7.11045 67.3296 6.58287 67.2341 6.07356L64.2855 6.62643C64.39 7.1838 64.5114 7.75622 64.6496 8.34356L67.5699 7.65644ZM67.1828 5.87566C67.1313 5.72129 67.0993 5.59908 67.0806 5.50583L64.1389 6.09417C64.1869 6.33425 64.2549 6.57871 64.3367 6.82434L67.1828 5.87566ZM67.0894 5.5534C67.0539 5.34042 67.0177 5.14096 66.9806 4.95582L64.0389 5.54418C64.0685 5.69237 64.099 5.85958 64.1302 6.04659L67.0894 5.5534ZM64.0389 4.95583C64.0202 5.04908 63.9882 5.17128 63.9367 5.32565L66.7828 6.27434C66.8647 6.02871 66.9326 5.78425 66.9806 5.54417L64.0389 4.95583ZM63.8889 5.50582C63.8519 5.69096 63.8157 5.89042 63.7802 6.10341L66.7394 6.59659C66.7705 6.40958 66.801 6.24237 66.8306 6.09418L63.8889 5.50582ZM63.9181 5.67916C63.7931 5.92927 63.7098 6.22418 63.7098 6.55H66.7098C66.7098 6.74248 66.6598 6.90406 66.6014 7.02084L63.9181 5.67916ZM63.7098 6.55C63.7098 6.43697 63.7235 6.3454 63.7358 6.28395C63.7484 6.22096 63.7632 6.17129 63.7742 6.13816C63.7954 6.07462 63.8149 6.03559 63.8181 6.02918L66.5014 7.37082C66.5406 7.29239 66.7098 6.96557 66.7098 6.55H63.7098ZM63.6889 6.40582C63.5964 6.86814 63.4892 7.31205 63.3675 7.73792L66.2521 8.56208C66.397 8.05461 66.5231 7.53186 66.6306 6.99417L63.6889 6.40582ZM63.3431 7.83571C63.2502 8.26896 63.1417 8.70302 63.0175 9.13792L65.9021 9.96208C66.0445 9.46365 66.1693 8.96437 66.2765 8.46429L63.3431 7.83571ZM123.596 32V33.5H125.347L125.078 31.7696L123.596 32ZM115.496 32L114.009 32.1993L114.184 33.5H115.496V32ZM113.646 18.2L115.133 18.0007L115.13 17.977L115.126 17.9534L113.646 18.2ZM113.396 16.45L111.905 16.6157L111.906 16.6253L113.396 16.45ZM113.196 14.65L111.698 14.7332L111.701 14.7745L111.705 14.8156L113.196 14.65ZM113.046 12.9L111.548 12.9832L111.551 13.0294L111.556 13.0753L113.046 12.9ZM112.896 11.1L114.387 10.9343L111.404 10.9507L112.896 11.1ZM112.746 12.1L114.217 12.3942V12.3942L112.746 12.1ZM112.496 13.1L111.059 12.669L111.039 12.7366L111.025 12.8058L112.496 13.1ZM111.996 15.1L110.559 14.669L110.552 14.6935L110.545 14.7183L111.996 15.1ZM111.446 17.1L112.887 17.5159L112.888 17.5121L111.446 17.1ZM107.146 32V33.5H108.274L108.587 32.4159L107.146 32ZM101.396 32L99.9562 32.4204L100.271 33.5H101.396V32ZM97.0461 17.1L95.6038 17.5121L95.6062 17.5204L97.0461 17.1ZM96.4961 15.1L95.0409 15.4638L95.0431 15.4728L95.0455 15.4817L96.4961 15.1ZM95.9961 13.1L94.5252 13.3942L94.5322 13.4292L94.5409 13.4638L95.9961 13.1ZM95.7461 12.1L94.2752 12.3942L94.2891 12.4634L94.3094 12.531L95.7461 12.1ZM95.5461 11.1L97.017 10.8058L94.0484 11.0168L95.5461 11.1ZM95.3961 12.9L93.9053 12.7344L93.901 12.773L93.8987 12.8119L95.3961 12.9ZM95.2461 14.65L96.7369 14.8156L95.2461 14.65ZM95.0461 16.45L96.5359 16.6253L96.5369 16.6156L95.0461 16.45ZM94.8461 18.2L96.3328 18.3993L96.335 18.3825L96.3369 18.3656L94.8461 18.2ZM92.9961 32V33.5H94.3084L94.4828 32.1993L92.9961 32ZM84.9461 32L83.4632 31.7742L83.2004 33.5H84.9461V32ZM89.7961 0.149999V-1.35H88.5072L88.3132 -0.0758128L89.7961 0.149999ZM98.3961 0.149999L99.8342 -0.276583L99.5157 -1.35H98.3961V0.149999ZM103.246 16.5L104.701 16.1362L104.693 16.1046L104.684 16.0734L103.246 16.5ZM103.546 17.65L102.099 18.0447L102.122 18.1274L102.153 18.2071L103.546 17.65ZM103.846 18.7L102.37 18.9683L102.382 19.0321L102.399 19.0947L103.846 18.7ZM104.096 19.8L102.62 20.0683L102.623 20.0813L102.625 20.0942L104.096 19.8ZM104.246 20.9L102.751 21.0246L105.729 21.1281L104.246 20.9ZM104.446 19.65L102.985 19.3127L102.974 19.3578L102.967 19.4034L104.446 19.65ZM104.746 18.35L106.208 18.6873L106.21 18.6754L104.746 18.35ZM105.196 16.5L106.633 16.931L106.633 16.9306L105.196 16.5ZM110.096 0.149999V-1.35H108.98L108.659 -0.28062L110.096 0.149999ZM118.646 0.149999L120.128 -0.0803599L119.931 -1.35H118.646V0.149999ZM123.596 30.5H115.496V33.5H123.596V30.5ZM116.983 31.8007L115.133 18.0007L112.159 18.3993L114.009 32.1993L116.983 31.8007ZM115.126 17.9534C115.029 17.3756 114.95 16.816 114.886 16.2747L111.906 16.6253C111.976 17.2173 112.063 17.8244 112.167 18.4466L115.126 17.9534ZM114.887 16.2843C114.82 15.6844 114.754 15.0844 114.687 14.4844L111.705 14.8156C111.772 15.4156 111.839 16.0156 111.905 16.6156L114.887 16.2843ZM114.694 14.5668C114.659 13.9377 114.606 13.3236 114.536 12.7247L111.556 13.0753C111.619 13.6098 111.667 14.1623 111.698 14.7332L114.694 14.5668ZM114.544 12.8168C114.509 12.1891 114.457 11.5616 114.387 10.9343L111.405 11.2656C111.469 11.8384 111.517 12.4109 111.548 12.9832L114.544 12.8168ZM111.404 10.9507C111.375 11.2347 111.332 11.5197 111.275 11.8058L114.217 12.3942C114.293 12.0136 114.35 11.6319 114.389 11.2493L111.404 10.9507ZM111.275 11.8058C111.218 12.092 111.146 12.3796 111.059 12.669L113.933 13.531C114.046 13.1537 114.141 12.7747 114.217 12.3942L111.275 11.8058ZM111.025 12.8058C110.901 13.4253 110.746 14.0463 110.559 14.669L113.433 15.531C113.646 14.8204 113.824 14.108 113.967 13.3942L111.025 12.8058ZM110.545 14.7183C110.382 15.3404 110.201 15.9969 110.004 16.6879L112.888 17.5121C113.091 16.8031 113.277 16.1263 113.447 15.4817L110.545 14.7183ZM110.005 16.6841L105.705 31.5841L108.587 32.4159L112.887 17.5159L110.005 16.6841ZM107.146 30.5H101.396V33.5H107.146V30.5ZM102.836 31.5796L98.486 16.6796L95.6062 17.5204L99.9562 32.4204L102.836 31.5796ZM98.4884 16.6879C98.2909 15.9969 98.1104 15.3404 97.9467 14.7183L95.0455 15.4817C95.2151 16.1263 95.4012 16.8031 95.6038 17.5121L98.4884 16.6879ZM97.9513 14.7362C97.7846 14.0695 97.618 13.4029 97.4513 12.7362L94.5409 13.4638C94.7076 14.1305 94.8742 14.7971 95.0409 15.4638L97.9513 14.7362ZM97.467 12.8058C97.3909 12.4253 97.296 12.0463 97.1828 11.669L94.3094 12.531C94.3962 12.8204 94.468 13.108 94.5252 13.3942L97.467 12.8058ZM97.217 11.8058C97.1503 11.4725 97.0836 11.1392 97.017 10.8058L94.0752 11.3942C94.1419 11.7275 94.2086 12.0608 94.2752 12.3942L97.217 11.8058ZM94.0484 11.0168C94.0166 11.5891 93.9689 12.1616 93.9053 12.7344L96.8869 13.0656C96.9566 12.4384 97.0089 11.8109 97.0438 11.1832L94.0484 11.0168ZM93.8987 12.8119C93.867 13.3511 93.8193 13.9085 93.7553 14.4844L96.7369 14.8156C96.8063 14.1915 96.8586 13.5822 96.8935 12.9881L93.8987 12.8119ZM93.7553 14.4844C93.6886 15.0844 93.6219 15.6844 93.5553 16.2844L96.5369 16.6156C96.6036 16.0156 96.6702 15.4156 96.7369 14.8156L93.7553 14.4844ZM93.5564 16.2747C93.4893 16.8448 93.4223 17.4313 93.3553 18.0344L96.3369 18.3656C96.4033 17.7687 96.4696 17.1885 96.5358 16.6253L93.5564 16.2747ZM93.3594 18.0007L91.5094 31.8007L94.4828 32.1993L96.3328 18.3993L93.3594 18.0007ZM92.9961 30.5H84.9461V33.5H92.9961V30.5ZM86.429 32.2258L91.279 0.37581L88.3132 -0.0758128L83.4632 31.7742L86.429 32.2258ZM89.7961 1.65H98.3961V-1.35H89.7961V1.65ZM96.958 0.576581L101.808 16.9266L104.684 16.0734L99.8342 -0.276583L96.958 0.576581ZM101.791 16.8638C101.893 17.2733 101.996 17.6669 102.099 18.0447L104.993 17.2553C104.896 16.8997 104.799 16.5267 104.701 16.1362L101.791 16.8638ZM102.153 18.2071C102.248 18.4437 102.321 18.6967 102.37 18.9683L105.322 18.4317C105.238 17.97 105.111 17.523 104.939 17.0929L102.153 18.2071ZM102.399 19.0947C102.488 19.4205 102.562 19.745 102.62 20.0683L105.572 19.5317C105.497 19.1217 105.404 18.7128 105.293 18.3053L102.399 19.0947ZM102.625 20.0942C102.679 20.3625 102.722 20.6717 102.751 21.0246L105.741 20.7754C105.704 20.3283 105.647 19.9041 105.567 19.5058L102.625 20.0942ZM105.729 21.1281C105.794 20.7004 105.86 20.29 105.926 19.8966L102.967 19.4034C102.899 19.81 102.831 20.2329 102.764 20.6719L105.729 21.1281ZM105.908 19.9873C106.008 19.554 106.108 19.1206 106.208 18.6873L103.285 18.0127C103.185 18.446 103.085 18.8794 102.985 19.3127L105.908 19.9873ZM106.21 18.6754C106.235 18.5654 106.236 18.5604 106.26 18.4504C106.285 18.3404 106.286 18.3354 106.31 18.2254C106.35 18.0454 106.37 17.9554 106.41 17.7754L103.482 17.1246C103.457 17.2346 103.456 17.2396 103.432 17.3496C103.407 17.4596 103.406 17.4646 103.382 17.5746C103.342 17.7546 103.322 17.8446 103.282 18.0246L106.21 18.6754ZM106.41 17.7754C106.468 17.5152 106.542 17.234 106.633 16.931L103.759 16.069C103.65 16.4327 103.557 16.7848 103.482 17.1246L106.41 17.7754ZM106.633 16.9306L111.533 0.580617L108.659 -0.28062L103.759 16.0694L106.633 16.9306ZM110.096 1.65H118.646V-1.35H110.096V1.65ZM117.164 0.380357L122.114 32.2304L125.078 31.7696L120.128 -0.0803599L117.164 0.380357Z" fill="#030E0F"/>
</svg>
